<svg xmlns="http://www.w3.org/2000/svg" width="501.179" height="292.394" viewBox="0 0 501.179 292.394">
  <g id="Groupe_1782" data-name="Groupe 1782" transform="translate(-79.991 -180.01)">
    <g id="undraw_family_vg76" transform="translate(225.457 199.596)">
      <g id="Groupe_1376" data-name="Groupe 1376" transform="translate(124.692 255.094)">
        <path id="Tracé_4451" data-name="Tracé 4451" d="M217.451,456.372h3.789l1.8-14.617H217.45Z" transform="translate(-216.574 -441.755)" fill="#ffb6b6"/>
        <path id="Tracé_4452" data-name="Tracé 4452" d="M229.793,463.791h0a3.253,3.253,0,0,1,.18,1.071h0a1.286,1.286,0,0,1-1.286,1.286H216.951a.877.877,0,0,1-.877-.877v-.489a3.751,3.751,0,0,1,.615-3.278s1.485,1.417,3.705-.8l.655-1.186,4.738,3.465,2.626.323c.575.071,1.084-.011,1.38.487h0Z" transform="translate(-215.933 -449.26)" fill="#2f2e41"/>
      </g>
      <g id="Groupe_1377" data-name="Groupe 1377" transform="translate(113.143 255.094)">
        <path id="Tracé_4453" data-name="Tracé 4453" d="M197.451,456.372h3.79l1.8-14.617H197.45Z" transform="translate(-196.574 -441.755)" fill="#ffb6b6"/>
        <path id="Tracé_4454" data-name="Tracé 4454" d="M209.793,463.791h0a3.253,3.253,0,0,1,.18,1.071h0a1.286,1.286,0,0,1-1.286,1.286H196.951a.877.877,0,0,1-.877-.877v-.489a3.751,3.751,0,0,1,.615-3.278s1.485,1.417,3.705-.8l.655-1.186,4.738,3.465,2.626.323c.575.071,1.084-.011,1.38.487h0Z" transform="translate(-195.933 -449.26)" fill="#2f2e41"/>
      </g>
      <path id="Tracé_4455" data-name="Tracé 4455" d="M210.666,357.755l4.042,15.653-2.021,40.2-9.528.638-.577-23.139-1.155,23.82-9.817-2.042-.577-52.4Z" transform="translate(-80.719 -151.167)" fill="#2f2e41"/>
      <g id="Groupe_1378" data-name="Groupe 1378" transform="translate(84.639 150.979)">
        <path id="uuid-f560b4a3-9a95-4199-88c1-6c6c96ee74ab-1893" d="M152.749,264.362c-1.3-2.289-3.542-3.471-5-2.641s-1.579,3.358-.274,5.648a6.592,6.592,0,0,0,2.106,2.293l5.648,9.627,4.461-2.747-6.042-9.2A6.593,6.593,0,0,0,152.749,264.362Z" transform="translate(-146.572 -261.455)" fill="#ffb6b6"/>
        <path id="Tracé_4456" data-name="Tracé 4456" d="M179.776,302.38s-5.353,7.379-8.628,4.742-21.365-32.277-21.365-32.277L156.963,271Z" transform="translate(-147.929 -265.487)" fill="#ff6484"/>
      </g>
      <path id="Tracé_4457" data-name="Tracé 4457" d="M193.032,302.149l6.929-10.394,6.93,2.887-1.732,9.239Z" transform="translate(-81.564 -123.279)" fill="#ffb6b6"/>
      <path id="Tracé_4458" data-name="Tracé 4458" d="M189.807,305.333l12.127-.578,8.084,2.31L211.75,349.8l-24.253-2.31V324.952l-3.465-11.535Z" transform="translate(-77.762 -128.772)" fill="#ff6484"/>
      <path id="Tracé_4459" data-name="Tracé 4459" d="M208.563,333.95a9.464,9.464,0,0,1-.486-3.864c.31-3.695.369-10.934-3.4-14.2l-2.127-2.3c-.044-.048-.094-.089-.139-.136l3.519-8.272-2.126-.9-3.267,7.678a9.262,9.262,0,0,0-10.33.427l-1.992-7.3-2.229.608L188.48,314c-.09.111-.189.212-.275.327l-1.217,1.633a9.517,9.517,0,0,1-.978,1.114,7.4,7.4,0,0,0-2.218,5.243,9.22,9.22,0,0,1-.482,2.751l-1.447,4.52a9.107,9.107,0,0,0-.315,1.3c-.638,3.871-2.845,22.107,12.243,21.742,14.065-.34,14.991-8.9,14.909-11.749a8.513,8.513,0,0,1,.153-1.836A10.192,10.192,0,0,0,208.563,333.95Z" transform="translate(-76.505 -128.565)" fill="#3f3d56"/>
      <path id="Tracé_4460" data-name="Tracé 4460" d="M327.584,36.017,328.9,56.324,312.36,60.119,313.512,43.7Z" transform="translate(-131.986 -15.219)" fill="#ffb6b6"/>
      <g id="Groupe_1379" data-name="Groupe 1379" transform="translate(170.961 238.842)">
        <path id="Tracé_4461" data-name="Tracé 4461" d="M332.854,442.366H325.4l-3.546-28.755h11Z" transform="translate(-306.958 -413.611)" fill="#ffb6b6"/>
        <path id="Tracé_4462" data-name="Tracé 4462" d="M296.413,456.96h0a6.405,6.405,0,0,0-.354,2.107h0a2.53,2.53,0,0,0,2.53,2.53h23.087a1.726,1.726,0,0,0,1.726-1.726v-.961s1.142-2.889-1.209-6.449c0,0-2.923,2.788-7.289-1.579l-1.288-2.333-9.322,6.817-5.167.636c-1.13.139-2.132-.021-2.714.958Z" transform="translate(-296.059 -428.374)" fill="#2f2e41"/>
      </g>
      <g id="Groupe_1380" data-name="Groupe 1380" transform="translate(191.172 238.842)">
        <path id="Tracé_4463" data-name="Tracé 4463" d="M367.854,442.366H360.4l-3.546-28.755h11Z" transform="translate(-341.958 -413.611)" fill="#ffb6b6"/>
        <path id="Tracé_4464" data-name="Tracé 4464" d="M331.413,456.96h0a6.4,6.4,0,0,0-.355,2.107h0a2.53,2.53,0,0,0,2.53,2.53h23.087a1.726,1.726,0,0,0,1.726-1.726v-.961s1.142-2.889-1.209-6.449c0,0-2.923,2.788-7.289-1.579l-1.288-2.333-9.322,6.817-5.167.636c-1.13.139-2.133-.021-2.714.958Z" transform="translate(-331.059 -428.374)" fill="#2f2e41"/>
      </g>
      <path id="Tracé_4465" data-name="Tracé 4465" d="M348.116,226.755s6.352,8.084,5.2,12.7-9.239,110.872-9.239,110.872l-11.549-.578-6.929-95.28-1.782,95.858-10.922-.578L299.032,230.8Z" transform="translate(-126.354 -95.814)" fill="#2f2e41"/>
      <path id="uuid-35c49308-43d3-4982-a82f-2c4b488719d7-1894" d="M261.062,253.3c-1.092,4.185-4.137,7.015-6.8,6.319s-3.937-4.652-2.844-8.838a10.826,10.826,0,0,1,2.361-4.535l4.851-17.675,8.246,2.453-5.657,17.164A10.828,10.828,0,0,1,261.062,253.3Z" transform="translate(-106.069 -96.58)" fill="#ffb6b6"/>
      <circle id="Ellipse_77" data-name="Ellipse 77" cx="16.5" cy="16.5" r="16.5" transform="translate(165.663 4.649)" fill="#ffb6b6"/>
      <path id="Tracé_4466" data-name="Tracé 4466" d="M305.271,70.22,322.6,66.755l19.056,9.817,4.042,62.943,5.2,23.676-53.7.577,2.31-31.76-3.465-50.239Z" transform="translate(-125.086 -28.207)" fill="#eaebf0"/>
      <path id="Tracé_4467" data-name="Tracé 4467" d="M283.905,95.17s-9.239-2.887-12.7,2.31-9.817,51.971-9.817,51.971l-6.352,35.225,11.549,1.732,19.056-61.788Z" transform="translate(-107.762 -39.875)" fill="#eaebf0"/>
      <g id="Groupe_1381" data-name="Groupe 1381" transform="translate(209.333 46.507)">
        <path id="uuid-bde1eca8-243b-424d-9fdc-27c2181c111a-1895" d="M437.477,221.168c1.883,3.894,1.4,8.022-1.08,9.22s-6.013-.989-7.9-4.885a10.825,10.825,0,0,1-1.143-4.983l-7.768-16.6,7.868-3.479,6.823,16.736A10.825,10.825,0,0,1,437.477,221.168Z" transform="translate(-386.628 -131.201)" fill="#ffb6b6"/>
        <path id="Tracé_4468" data-name="Tracé 4468" d="M362.508,82.994s8.3-4.985,12.89-.752,21.8,48.189,21.8,48.189l14.482,32.732-10.815,4.408-33.094-55.549Z" transform="translate(-362.508 -80.537)" fill="#eaebf0"/>
      </g>
      <path id="Tracé_4469" data-name="Tracé 4469" d="M501.179,470.737c0,.381-.615.687-1.382.687H1.382c-.766,0-1.382-.306-1.382-.687,0-.185.139-.346.372-.468H104.539c2.217,0,4.389-.075,6.525-.22H499.8C500.563,470.049,501.179,470.355,501.179,470.737Z" transform="translate(-145.466 -198.616)" fill="#3f3d56"/>
      <path id="uuid-76bcf24f-af63-48e1-b762-2a44b8a9d8fc-1896" d="M251.888,272.086c1.031-2.424,3.117-3.858,4.659-3.2s1.958,3.153.926,5.578a6.593,6.593,0,0,1-1.826,2.522l-4.5,10.217-4.749-2.212,4.937-9.837A6.593,6.593,0,0,1,251.888,272.086Z" transform="translate(-104.116 -113.548)" fill="#ffb6b6"/>
      <circle id="Ellipse_78" data-name="Ellipse 78" cx="10.621" cy="10.621" r="10.621" transform="translate(107.122 154.908)" fill="#ffb6b6"/>
      <path id="Tracé_4470" data-name="Tracé 4470" d="M227.032,296.924l10.394-4.042,3.465-12.127,7.507,2.887-5.775,17.324-15.591,5.956Z" transform="translate(-95.931 -118.631)" fill="#ff6484"/>
      <path id="Tracé_4471" data-name="Tracé 4471" d="M192.979,289.25l6.335-5.154s-.6-7.724,1.678-8.419,4.652-3.469,4.652-3.469-3.769-8.514-10.4-7.222-5.121-.673-9.209,1.492-5.047,5.054-4.55,8.124-.983,10.7,3.969,11.089a11.293,11.293,0,0,1,7.529,3.56Z" transform="translate(-76.633 -111.911)" fill="#2f2e41"/>
      <path id="Tracé_4472" data-name="Tracé 4472" d="M287.8,24.844c-1.2-2.2-.579-3.244-1.665-4.1,0,0-.437-.345-3.728-.785h0c-.315-5.385-1.187-6.1-1.187-6.1a3.9,3.9,0,0,0-3.624-.337c-2.156.8-2.081,2.9-3.513,3.182-1.978.4,3.414-2.985,3.351-6.562-.051-2.917,2.038-5.579,2.766-5.372s2.657-1.9,3.6-1.785c.646.075,3.383-.863,4.087-.716.769.16,3.225,1.7,3.356,1.405C292.153,1.6,291.982,1,292.66.44c1.2-.987,2.967-.092,5.8.539,5.825,1.3,7.009-.562,9.922,1,1.472.787,2.6,2.683,4.811,6.442,3.085,5.257,4.627,7.886,4.406,10.79-.225,2.962-1.644,2.66-2.624,6.993-1.091,4.824.22,7.174-1.534,8.63-1.356,1.125-12.6,1.211-13.855.029-2.153-2.025,1.212-6.227-1.074-9.676-1.4-2.117-4.474-3.255-5.992-2.385-1.716.984-1.081,4.324-2.25,4.542-1,.187-2.263-2.114-2.473-2.5Z" transform="translate(-115.626 0)" fill="#2f2e41"/>
      <g id="Groupe_1385" data-name="Groupe 1385" transform="translate(18.578 30.715)">
        <g id="Groupe_1382" data-name="Groupe 1382" transform="translate(14.879 50.412)">
          <path id="Tracé_4473" data-name="Tracé 4473" d="M116.679,218.442c2.3-1.942,1.688-6.444-1.363-10.056a11.835,11.835,0,0,0-4.467-3.358l-1.781-2.055-23-28.816s-12.736-28.666-16.5-31.763a8.866,8.866,0,0,0-8.183-1.485l-3.451,4.27L79.446,185.2l22.01,22.151,2.971,3.1a11.833,11.833,0,0,0,2.565,4.965c3.051,3.612,7.388,4.966,9.687,3.024Z" transform="translate(-57.939 -140.49)" fill="#ffb6b6"/>
          <path id="Tracé_4474" data-name="Tracé 4474" d="M74.27,153.017l5.763,8.452,8.274,12.245-14.867,5.143L60.314,156.335Z" transform="translate(-58.943 -145.783)" fill="#fff"/>
        </g>
        <path id="Tracé_4475" data-name="Tracé 4475" d="M79.916,100.338l-4.174,15.914-15.914-3.131s6.261-11.479,4.7-16.7Z" transform="translate(-43.858 -71.458)" fill="#ffb6b6"/>
        <g id="Groupe_1383" data-name="Groupe 1383" transform="translate(17.042 199.064)">
          <path id="Tracé_4476" data-name="Tracé 4476" d="M65.522,434.88h9.583l4.559-36.964H65.52Z" transform="translate(-63.305 -397.914)" fill="#ffb6b6"/>
          <path id="Tracé_4477" data-name="Tracé 4477" d="M96.734,453.64h0a8.228,8.228,0,0,1,.456,2.709h0a3.253,3.253,0,0,1-3.253,3.253H64.26a2.219,2.219,0,0,1-2.219-2.219v-1.235s-1.468-3.714,1.555-8.291c0,0,3.757,3.584,9.37-2.03l1.655-3L86.6,451.592l6.642.818c1.453.179,2.741-.028,3.489,1.231Z" transform="translate(-61.684 -416.892)" fill="#2f2e41"/>
        </g>
        <path id="Tracé_4478" data-name="Tracé 4478" d="M86.47,260.985l-13.205,89.86H56.7l2.2-51.294,1.159-26.971L56.7,259.741a57.334,57.334,0,0,1-2.825-6.313c-1.456-3.9-2.606-8.583-.9-10.8.628-.818,2.261-1.424,4.48-1.874a46.361,46.361,0,0,1,4.638-.66c9.8-.969,23.734-.364,23.734-.364l.354,11.691.2,6.529Z" transform="translate(-40.602 -131.931)" fill="#2f2e41"/>
        <g id="Groupe_1384" data-name="Groupe 1384" transform="translate(0 195.063)">
          <path id="Tracé_4479" data-name="Tracé 4479" d="M36.29,427.557l9.481,1.393,9.887-35.908-13.994-2.056Z" transform="translate(-33.912 -390.986)" fill="#ffb6b6"/>
          <path id="Tracé_4480" data-name="Tracé 4480" d="M67.066,452.035h0a8.227,8.227,0,0,1,.057,2.746h0a3.253,3.253,0,0,1-3.691,2.745l-29.362-4.317a2.219,2.219,0,0,1-1.873-2.518l.18-1.222s-.912-3.888,2.744-7.977c0,0,3.2,4.092,9.566-.645l2.074-2.726,10.581,10.413,6.452,1.775c1.412.388,2.716.371,3.273,1.726h0Z" transform="translate(-32.173 -410.903)" fill="#2f2e41"/>
        </g>
        <path id="Tracé_4481" data-name="Tracé 4481" d="M79.519,244.366l-1.811,15.6-9.878,32.87-16.26,54.115-16.39-2.409L49.89,267.6,48.434,254.4s-.474-1.311-1.018-3.231c-1.079-3.8-2.433-9.984-.944-13.139a3.689,3.689,0,0,1,.766-1.1,6.116,6.116,0,0,1,3.371-1.1c6.667-.753,20.4,1.4,26.5,2.459l2.405,6.073Z" transform="translate(-33.444 -130.299)" fill="#2f2e41"/>
        <path id="Tracé_4482" data-name="Tracé 4482" d="M73.107,121.673l18,22.7-3.231,23.663-2.769,24.078L52.5,187.155s7.044-16.957,7.826-17.74,2.749,1.15,1.374-1.381-2.94-2.532-1.635-3.836S49.889,145.935,49.889,136.8s5.479-16.436,5.479-16.436l17.74,1.3Z" transform="translate(-39.659 -81.576)" fill="#fff"/>
        <circle id="Ellipse_79" data-name="Ellipse 79" cx="12.126" cy="12.126" r="12.126" transform="translate(17.123 7.632)" fill="#ffb6b6"/>
        <path id="Tracé_4483" data-name="Tracé 4483" d="M63.076,96.133S64.891,81.775,65.212,77.6s6.215-10.694,6.215-10.694L75.6,70.278s3.533,0,1.124-5.139A10.359,10.359,0,0,0,69.821,59.2s-.482-6.745-8.832-5.942A16.08,16.08,0,0,0,48.944,60.8s-.482-8.511-5.781-2.248-8.351,8.832-2.73,10.92a14.832,14.832,0,0,0,9.8.482s-5.46,1.124-4.5,4.978S33.046,96.294,39.309,98.221s20.234,6.584,21.84,3.533a18.259,18.259,0,0,0,1.927-5.621Z" transform="translate(-34.394 -53.189)" fill="#2f2e41"/>
        <path id="Tracé_4484" data-name="Tracé 4484" d="M125.877,220.2c2.315-1.922,1.742-6.429-1.279-10.067a11.833,11.833,0,0,0-4.439-3.4l-1.764-2.07L95.639,175.664s-12.5-28.772-16.229-31.9a8.866,8.866,0,0,0-8.17-1.553l-3.487,4.241,21.17,40.2,21.824,22.334,2.945,3.123a11.833,11.833,0,0,0,2.523,4.987c3.021,3.637,7.346,5.028,9.661,3.105Z" transform="translate(-47.207 -90.637)" fill="#ffb6b6"/>
        <path id="Tracé_4485" data-name="Tracé 4485" d="M65.466,138.639s5.571,28.908,11.91,33.17l12.632-9.85s1.105-.048-.952-2.371-1.531-7.314-1.531-7.314.926,1.2-1.089-.465-.139-13.1-.139-13.1l-20.831-.071Z" transform="translate(-46.241 -89.296)" fill="#fff"/>
      </g>
      <path id="Tracé_4486" data-name="Tracé 4486" d="M208.336,336.2a.577.577,0,0,1-.564-.456l-.635-2.95a9.768,9.768,0,0,0-18.587-1.653l-1.593,3.883a.577.577,0,1,1-1.068-.438l1.593-3.883a10.923,10.923,0,0,1,20.784,1.848l.635,2.95a.578.578,0,0,1-.443.686A.59.59,0,0,1,208.336,336.2Z" transform="translate(-78.528 -136.873)" fill="#ffb6b6"/>
      <path id="Tracé_4487" data-name="Tracé 4487" d="M209.914,359.205l-.052,0L188.494,357.3a.578.578,0,1,1,.1-1.151l21.369,1.906a.577.577,0,0,1-.051,1.153Z" transform="translate(-79.424 -150.487)" fill="#ffb6b6"/>
    </g>
    <g id="undraw_play_time_-7-k7b" transform="translate(151.421 180.01)">
      <path id="Tracé_9530" data-name="Tracé 9530" d="M601.012,182.31s1.031,1.182-.736,3.468-.34,7.247,3.016,7.373,4.984,1.532,4.175,3.384-1.781,6.251,1.873,5.582,4.81.786,4.163,1.9,1.63-2.224,1.63-2.224,2.037,3.034,4.536.91,3.494-21.378-1.6-21.7S601.012,182.31,601.012,182.31Z" transform="translate(-562.818 -172.084)" fill="#2f2e41"/>
      <path id="Tracé_9531" data-name="Tracé 9531" d="M390.505,275.848l1.161,8.129h5.226l-1.742-9.29Z" transform="translate(-326.475 -174.059)" fill="#9f616a"/>
      <path id="Tracé_9532" data-name="Tracé 9532" d="M654.366,377.83s6.968,6.387,5.226,6.968-8.129,7.549-9.291,8.129c-1.039.519-12.194,4.065-10.452,0a15.272,15.272,0,0,1,5.807-6.387l1.161-6.968Z" transform="translate(-583.368 -272.847)" fill="#f2f2f2"/>
      <path id="Tracé_9533" data-name="Tracé 9533" d="M654.366,377.83s6.968,6.387,5.226,6.968-8.129,7.549-9.291,8.129c-1.039.519-12.194,4.065-10.452,0a15.272,15.272,0,0,1,5.807-6.387l1.161-6.968Z" transform="translate(-583.368 -272.847)" opacity="0.1"/>
      <path id="Tracé_9534" data-name="Tracé 9534" d="M404.779,263.358l1.161,8.13h5.226l-1.742-9.291Z" transform="translate(-333.781 -167.666)" fill="#9f616a"/>
      <path id="Tracé_9535" data-name="Tracé 9535" d="M625.047,271.9l7.61-25.164s-12.775-11.613-4.065-15.1,11.033,13.936,11.033,13.936l-2.9,30.195H625.109Z" transform="translate(-575.887 -197.786)" fill="#ffb8b8"/>
      <path id="Tracé_9536" data-name="Tracé 9536" d="M647.86,276.725s-15.008,19.249-12.73,22.109,6.342,20.28,6.342,20.28-.581,6.968,1.742,6.968,8.129-1.161,8.129-2.9-5.226-23.807-5.226-23.807l15.1-19.743Z" transform="translate(-580.926 -221.099)" fill="#ff6484"/>
      <path id="Tracé_9537" data-name="Tracé 9537" d="M655.529,270.581l15.1-8.129s10.452,5.226,7.549,9.871-16.259,16.839-16.259,16.839,4.065,19.743,3.484,20.323-6.968,2.9-8.71,2.323-11.033-23.227-8.71-24.388,9.871-13.355,9.871-13.355Z" transform="translate(-587.435 -213.793)" fill="#ff6484"/>
      <path id="Tracé_9538" data-name="Tracé 9538" d="M567.193,713.813s10.452,6.387,11.613,6.387,16.839,4.065,9.871,6.968-33.679-1.161-33.1-2.9,0-12.194,1.161-12.194S567.193,713.813,567.193,713.813Z" transform="translate(-540.327 -443.92)" fill="#2f2e41"/>
      <path id="Tracé_9539" data-name="Tracé 9539" d="M590.983,730.466s10.452,6.387,11.613,6.387,16.839,4.065,9.871,6.968-33.679-1.161-33.1-2.9,0-12.194,1.161-12.194S590.983,730.466,590.983,730.466Z" transform="translate(-552.503 -452.443)" fill="#2f2e41"/>
      <path id="Tracé_9540" data-name="Tracé 9540" d="M567.951,472.819a82.853,82.853,0,0,0,4.645,15.1c2.9,6.387-.581,36.582-2.323,41.227s-18.582,59.809-13.355,60.39,15.678,0,15.678,0l16.839-52.841-2.9-70.842Z" transform="translate(-540.504 -317.898)" fill="#b8b8b8"/>
      <path id="Tracé_9541" data-name="Tracé 9541" d="M567.951,472.819a82.853,82.853,0,0,0,4.645,15.1c2.9,6.387-.581,36.582-2.323,41.227s-18.582,59.809-13.355,60.39,15.678,0,15.678,0l16.839-52.841-2.9-70.842Z" transform="translate(-540.504 -317.898)" fill="#b8b8b8" opacity="0.1"/>
      <path id="Tracé_9542" data-name="Tracé 9542" d="M579,471.449s2.323,15.678,7.549,19.162,3.484,6.968,3.484,6.968l-2.323,30.775s-22.646,55.744-15.678,62.712,13.355,4.065,16.259,3.484,8.129-12.775,5.226-16.259,5.807-24.388,8.129-27.872,0-8.129,2.9-9.291,9.291-8.71,9.291-13.936,8.129-60.97,2.9-64.454-38.725,7.191-38.725,7.191Z" transform="translate(-548.072 -315.948)" fill="#e6e6e6"/>
      <ellipse id="Ellipse_274" data-name="Ellipse 274" cx="12.775" cy="12.775" rx="12.775" ry="12.775" transform="translate(7.124 48.658)" fill="#ffb8b8"/>
      <ellipse id="Ellipse_275" data-name="Ellipse 275" cx="10.452" cy="10.452" rx="10.452" ry="10.452" transform="translate(38.48 4.527)" fill="#9f616a"/>
      <path id="Tracé_9543" data-name="Tracé 9543" d="M571.9,288.62s6.968,12.775,10.452,12.775S568.42,314.75,568.42,314.75s-5.807-16.839-6.968-17.42S571.9,288.62,571.9,288.62Z" transform="translate(-543.295 -227.187)" fill="#ffb8b8"/>
      <path id="Tracé_9544" data-name="Tracé 9544" d="M568.148,308.756s-15.1,5.226-14.517,6.968-4.065,5.807-4.065,7.549-1.161,17.42,5.807,30.195,18,22.065,12.775,27.872-13.356,15.678-4.645,15.678,22.646-12.775,35.421-8.129,9.871-12.775,9.871-12.775,1.742-13.355-1.742-17.42-15.678-33.1-15.678-36.582-11.613-16.839-14.517-16.839S568.148,308.756,568.148,308.756Z" transform="translate(-537.216 -235.71)" fill="#2f2e41"/>
      <path id="Tracé_9545" data-name="Tracé 9545" d="M624.579,206.546" transform="translate(-575.647 -185.18)" fill="none" stroke="#2f2e41" stroke-miterlimit="10" stroke-width="1"/>
      <path id="Tracé_9546" data-name="Tracé 9546" d="M630.526,199.849s4.728,8.99,4.977,10.592,8.378-10.592,8.378-10.592l-9.291-6.387Z" transform="translate(-578.691 -178.483)" fill="#9f616a"/>
      <path id="Tracé_9547" data-name="Tracé 9547" d="M632.742,209.861l9.871-10.452,11.613,5.226s10.831,23.807,11.513,25.549-17.319,9.871-19.061,9.871-13.936-18-13.936-18S629.839,213.345,632.742,209.861Z" transform="translate(-579.164 -181.527)" fill="#f2f2f2"/>
      <path id="Tracé_9548" data-name="Tracé 9548" d="M359.579,155.145V165.6h6.968l-2.292-10.452Z" transform="translate(-310.647 -112.874)" fill="#9f616a"/>
      <path id="Tracé_9549" data-name="Tracé 9549" d="M628.217,265.424a4.331,4.331,0,0,0-4.091,2.75c-.454,1.228-.3,2.518,1.857,3.057,4.645,1.161,5.226,0,5.226,0s8.064-1.161,6.355-3.484-6.355-2.323-6.355-2.323Z" transform="translate(-575.309 -215.315)" fill="#9f616a"/>
      <path id="Tracé_9550" data-name="Tracé 9550" d="M668.639,368.314s6.968,6.387,5.226,6.968-8.129,7.549-9.291,8.129c-1.039.519-12.194,4.065-10.452,0a15.272,15.272,0,0,1,5.807-6.387l1.161-6.968Z" transform="translate(-590.673 -267.977)" fill="#f2f2f2"/>
      <path id="Tracé_9551" data-name="Tracé 9551" d="M539.691,264.5c.8-.468,1.743-1.052,1.766-1.978a1.751,1.751,0,0,0-1.148-1.538,5.141,5.141,0,0,0-2.007-.27,2.612,2.612,0,0,0-.776.077c-.661.2-1.042.876-1.563,1.331a6.533,6.533,0,0,1-2.771,1.109,18.144,18.144,0,0,0-4.645,1.925,2.179,2.179,0,0,0-.735.6,2.966,2.966,0,0,0-.3,1.5c-.131,1.97-1.312,3.685-2.194,5.452s-1.461,3.967-.426,5.649a19.247,19.247,0,0,1,1.148,1.63c.734,1.528-.182,3.41.348,5.021a4.391,4.391,0,0,0,1.112,1.667,8.834,8.834,0,0,0,3.659,2.215c1.32.406,2.957.677,3.474,1.957a10.414,10.414,0,0,0,.489,1.7,2.691,2.691,0,0,0,1.908.957,8.152,8.152,0,0,0,2.472.179,3.067,3.067,0,0,0,2.132-1.141,6.234,6.234,0,0,1,.863-1.273c.841-.7,2.118-.148,3.2-.334a2.339,2.339,0,0,0,1.833-1.72,3.256,3.256,0,0,1,.372-1.315c.671-.858,2.435-.252,2.878-1.247.288-.647-.314-1.33-.9-1.732a25.49,25.49,0,0,1-2.861-1.94,3.33,3.33,0,0,1-1.214-3.068c.4-1.684,2.6-2.611,2.671-4.34a3.109,3.109,0,0,0-1.467-2.449,22.6,22.6,0,0,1-2.432-1.7c-.521-.5-.913-1.136-1.479-1.589a6.94,6.94,0,0,0-3.727-1.051c-.7-.072-3.488-.395-3.379-1.46C536.087,266.439,538.982,264.912,539.691,264.5Z" transform="translate(-524.344 -212.897)" fill="#2f2e41"/>
      <path id="Tracé_9552" data-name="Tracé 9552" d="M626.045,219.63s-6.387,2.323-6.387,5.226-2.9,12.194,0,12.194,8.71-2.229,8.71-2.229Z" transform="translate(-572.467 -191.876)" fill="#f2f2f2"/>
      <path id="Tracé_9553" data-name="Tracé 9553" d="M625.923,257.177s16.839-5.807,17.42-5.807,8.71-4.645,8.129-6.387l-2.323-14.517s-9.291-19.162-2.9-19.162,9.871,15.1,9.871,15.1,13.936,26.13,6.387,31.937-38.9,16.259-40.647,14.517S625.923,257.177,625.923,257.177Z" transform="translate(-574.087 -187.615)" fill="#ffb8b8"/>
      <path id="Tracé_9554" data-name="Tracé 9554" d="M655.881,221.224,659.8,225l-5.081,4.933s-6.968-2.9-6.387-1.161,4.065,6.968,6.387,6.968,14.411-7.549,14.464-9.871-7.5-10.452-9.238-11.033S655.881,221.224,655.881,221.224Z" transform="translate(-587.787 -189.405)" fill="#9f616a"/>
      <path id="Tracé_9555" data-name="Tracé 9555" d="M648.735,212.056s8.531,7.532,9.693,7.532,3.273-11.316,3.273-11.316-6.883-4.485-9.433-3.262S648.735,212.056,648.735,212.056Z" transform="translate(-588.01 -184.285)" fill="#f2f2f2"/>
      <path id="Tracé_9556" data-name="Tracé 9556" d="M587.705,311.023s0-8.129,17.42-8.129h7.549l-3.484,19.162-11.613,3.484Z" transform="translate(-556.774 -234.492)" fill="#2f2e41"/>
      <path id="Tracé_9557" data-name="Tracé 9557" d="M632.682,173.521a45.091,45.091,0,0,1-5.108-.315c-1.331-3.218-3.027-5.917-4.862-6.924a18.391,18.391,0,0,0-4.885-2.681c-3.869-1.644-10.31-.618-10.686,1.251-7.613,3.638-5.689,10.026-5.689,10.026,1.183,2.5,3.837,1.392,6.088.26a4.449,4.449,0,0,0,3.877,3.424c3.718.14,5.521,1.7,4.624,3.748s-1.973,6.925,2.076,6.184,5.329.871,4.612,2.11,1.805-2.464,1.805-2.464,2.256,3.361,5.026,1.008a2.1,2.1,0,0,0,.577-.988c1.288.554,2.308.765,2.887.506,3.317-1.484,1.257-4.969,1.257-4.969s4.428-.679,3-.567-2.33-1.737.085-5.071S634.92,173.6,632.682,173.521Z" transform="translate(-563.699 -162.778)" fill="#2f2e41"/>
      <rect id="Rectangle_461" data-name="Rectangle 461" width="1.742" height="5.226" transform="translate(44.867 7.579) rotate(18.407)" fill="#ff6484"/>
    </g>
    <g id="undraw_quality_time_wiyl" transform="translate(479.787 212.656)">
      <rect id="Rectangle_474" data-name="Rectangle 474" width="13.539" height="13.539" transform="translate(52.33 68.824)" fill="#e6e6e6"/>
      <rect id="Rectangle_477" data-name="Rectangle 477" width="13.539" height="13.539" transform="translate(52.706 99.663)" fill="#e6e6e6"/>
      <rect id="Rectangle_479" data-name="Rectangle 479" width="13.539" height="13.539" transform="translate(31.269 130.502)" fill="#e6e6e6"/>
      <rect id="Rectangle_480" data-name="Rectangle 480" width="13.539" height="13.539" transform="translate(53.082 130.502)" fill="#e6e6e6"/>
      <rect id="Rectangle_483" data-name="Rectangle 483" width="13.539" height="13.539" transform="translate(53.082 130.502)" fill="#e6e6e6"/>
      <path id="Tracé_9638" data-name="Tracé 9638" d="M825.271,739.064l-3.7.435a18.041,18.041,0,0,1-10.156,2.291,3.046,3.046,0,0,1-2.58-1.581h0a3.018,3.018,0,0,1,1.969-4.377l2.813-.655,6.787-6.637,4.094-7.41,5.947.682,1.238,9.412h0A7.285,7.285,0,0,1,825.271,739.064Z" transform="translate(-730.619 -486.785)" fill="#2f2e41"/>
      <path id="Tracé_9639" data-name="Tracé 9639" d="M710.653,729.795l-3.628.854a18.04,18.04,0,0,1-9.829,3.433,3.046,3.046,0,0,1-2.743-1.277h0a3.018,3.018,0,0,1,1.458-4.573l2.719-.971,5.986-7.368,3.223-7.828h5.986l2.3,9.209h0a7.285,7.285,0,0,1-5.475,8.52Z" transform="translate(-673.649 -482.277)" fill="#2f2e41"/>
      <path id="Tracé_9640" data-name="Tracé 9640" d="M716.15,598.747l6.769,1.041,10.675-53.895,18.486-31.5,22.391,91.648L782.8,607.6c-.934-51.61,3.626-116.585-6.769-124.453l-45.3,5.207-19.788,53.114Z" transform="translate(-682.121 -368.439)" fill="#2f2e41"/>
      <ellipse id="Ellipse_288" data-name="Ellipse 288" cx="15.622" cy="15.622" rx="15.622" ry="15.622" transform="translate(51.214 3.273)" fill="#ffb8b8"/>
      <path id="Tracé_9641" data-name="Tracé 9641" d="M648.774,208.816l-18.746,3.124-4.686-16.663,13.539-4.165Z" transform="translate(-560.069 -165.968)" fill="#ffb8b8"/>
      <path id="Tracé_9642" data-name="Tracé 9642" d="M796.151,408.479l-49.99,4.687c4.008-13.935,7.679-27.822,4.687-41.658-3.8-12.352-.132-19.7,9.894-25.516l6.769-15.1,18.225-2.083h0a39.341,39.341,0,0,1,5.584,26.015C788.723,374.519,789.425,392.795,796.151,408.479Z" transform="translate(-699.634 -291.688)" fill="#ff6484"/>
      <path id="Tracé_9643" data-name="Tracé 9643" d="M764.338,255.413c-5.214,1.191-11.148,2.879-11.48,4.448-5.363,1.351-9.411,4.589-10.238,9.524a2.956,2.956,0,0,0,2.965,3.428c2.917-.038,7.295-.317,10.186-1.524,8.4,5.412,9.808,19.487,6.141,29.067l5.772-.529,5.971-17.48,1.525,16.793,13.171-1.741-1.7-21.414a31.9,31.9,0,0,0-5.01-14.147,12.048,12.048,0,0,0-.943-1.221A16.74,16.74,0,0,0,764.338,255.413Z" transform="translate(-697.854 -254.969)" fill="#2f2e41"/>
      <path id="Tracé_9644" data-name="Tracé 9644" d="M720.044,763.019a1.835,1.835,0,0,0,1.8,2.037l5.858.06a1.249,1.249,0,0,0,1.162-1.246h0a1.249,1.249,0,0,0-.785-1.16l-1.728-.691-2.514-3.519h-2.011a9.211,9.211,0,0,0-1.786,4.509Z" transform="translate(-686.641 -505.369)" fill="#2f2e41"/>
      <path id="Tracé_9645" data-name="Tracé 9645" d="M683.434,763.019a1.835,1.835,0,0,1-1.8,2.037l-5.858.06a1.249,1.249,0,0,1-1.162-1.246h0a1.249,1.249,0,0,1,.785-1.16l1.728-.691,2.514-3.519h2.011a9.209,9.209,0,0,1,1.786,4.509Z" transform="translate(-664.052 -505.369)" fill="#2f2e41"/>
      <path id="Tracé_9646" data-name="Tracé 9646" d="M525.5,585.947h3.016L539.073,540.2l5.53,46.249h3.519l4.776-59.571-24.382-.251Z" transform="translate(-510.419 -332.816)" fill="#3f3d56"/>
      <path id="Tracé_9647" data-name="Tracé 9647" d="M656.609,576.511h4.022v-9.552l.915-1.83a2.606,2.606,0,0,0-1.935-3.741h0a2.606,2.606,0,0,0-3,2.576Z" transform="translate(-655.101 -407.333)" fill="#ffb8b8"/>
      <ellipse id="Ellipse_289" data-name="Ellipse 289" cx="9.3" cy="9.3" rx="9.3" ry="9.3" transform="translate(16.087 126.95)" fill="#ffb8b8"/>
      <rect id="Rectangle_487" data-name="Rectangle 487" width="9.552" height="11.06" transform="translate(31.168 152.086) rotate(180)" fill="#ffb8b8"/>
      <path id="Tracé_9648" data-name="Tracé 9648" d="M685.123,597.252c8.454,5.217,17.393,4.707,26.644.5L709.756,551l-10.557-.5-11.06,1.508-5.53,4.524Z" transform="translate(-668.031 -401.933)" fill="#fff"/>
      <path id="Tracé_9649" data-name="Tracé 9649" d="M502.538,472.757l11.06-8.546-3.519-15.584-6.535,12.065-2.011-2.011-6.033,4.524Z" transform="translate(-495.5 -294.027)" fill="#fff"/>
      <path id="Tracé_9650" data-name="Tracé 9650" d="M754.416,540.913l-3.518,1.95-4.63-8.354-1.687-1.157a2.606,2.606,0,0,1-.121-4.21h0a2.606,2.606,0,0,1,3.874.8l1.452,2.62Z" transform="translate(-698.286 -391.041)" fill="#ffb8b8"/>
      <path id="Tracé_9651" data-name="Tracé 9651" d="M568,445.992l13.348-7.086,7.012-3.723,1.005-6.033-4.524-4.524-5.53,3.519.5,4.022-6.535-1.005Z" transform="translate(-531.553 -282.093)" fill="#fff"/>
      <path id="Tracé_9686" data-name="Tracé 9686" d="M11.06,0a11.06,11.06,0,0,1,11.06,11.06c0,2.052.334,5.3-.781,7.561-1.784,3.629-6.222,5.706-10.278,5.706A10.741,10.741,0,0,1,2.09,19.513c-.779-1.145.68-3.564.282-5.469C2.136,12.931,0,12.346,0,11.06,0,7.291.887,2.172,4.026,0,5.552-1.064,8.72,0,11.06,0Z" transform="translate(16.338 121.672)" fill="#2f2e41"/>
      <path id="Tracé_9653" data-name="Tracé 9653" d="M768.683,451.4l.345,12.089a6.591,6.591,0,0,1-5.933,6.747h0a6.591,6.591,0,0,1-7.019-8.278l2.713-10.037,7.811-42.7-.521-24.995,16.663-.521-3.124,28.119Z" transform="translate(-704.452 -318.989)" fill="#ffb8b8"/>
      <path id="Tracé_9654" data-name="Tracé 9654" d="M792.875,360.04a26.333,26.333,0,0,0-18.746,0l1.042-20.829a8.332,8.332,0,0,1,8.332-8.332h0a8.332,8.332,0,0,1,8.332,8.332Z" transform="translate(-713.542 -292.718)" fill="#ff6484"/>
    </g>
    <g id="Groupe_1781" data-name="Groupe 1781" transform="translate(82 235.425)">
      <path id="Tracé_9567" data-name="Tracé 9567" d="M166,555.62l-5.773,1.638-22.68-72.225,16.643-2.869Z" transform="translate(-88.049 -333.153)" fill="#9f616a"/>
      <path id="Tracé_9568" data-name="Tracé 9568" d="M66.089,555.059l-5.708-1.224,14.767-74.013,16.057,5.231Z" transform="translate(-55.885 -332.177)" fill="#9f616a"/>
      <path id="Tracé_9569" data-name="Tracé 9569" d="M336.925,753.61c1.581.721,2.9-3.75,4.238-2.439,3.729,3.665,12.676,2.843,12.676,2.843a2.331,2.331,0,0,0,1.469-3.038h0a2.331,2.331,0,0,0-1.617-1.443l-3.966-.992L343.5,737.59l-6.787-.859-.171.28a17.5,17.5,0,0,0-1.875,14.309C335.228,753.128,336,753.186,336.925,753.61Z" transform="translate(-265.926 -517.113)" fill="#2f2e41"/>
      <path id="Tracé_9570" data-name="Tracé 9570" d="M219.255,748.322c1.422,1,3.541-3.156,4.612-1.624,3,4.285,11.942,5.112,11.942,5.112a2.331,2.331,0,0,0,2-2.718h0a2.331,2.331,0,0,0-1.326-1.714l-3.718-1.7-4.121-11.905-6.515-2.085-.22.244a17.5,17.5,0,0,0-4.459,13.725A2.965,2.965,0,0,0,219.255,748.322Z" transform="translate(-217.342 -515.011)" fill="#2f2e41"/>
      <path id="Tracé_9571" data-name="Tracé 9571" d="M285.241,526.249c3.04,4.674,5.986,9.4,7.289,14.768a297.225,297.225,0,0,1,6.736,39.959c-10.561,6.059-19.723,9.537-28.673,10.137-.416.028-.832.047-1.247.063l-3.263-18.42-2.6,18.217c-1.289-.137-2.58-.332-3.876-.594a57.435,57.435,0,0,1-17.427-6.956,93.15,93.15,0,0,1-2.728-26.646,115.006,115.006,0,0,1,5.839-30.5Z" transform="translate(-226.522 -429.386)" fill="#2f2e41"/>
      <path id="Tracé_9572" data-name="Tracé 9572" d="M269.335,417.543l-14.347-4.878c5.19-5.081,7.31-10.66,5.165-16.93l16.069,2.869C272.409,405.954,267.417,410.379,269.335,417.543Z" transform="translate(-233.033 -374.988)" fill="#9f616a"/>
      <path id="Tracé_9573" data-name="Tracé 9573" d="M286.442,479.848c-13.051,10.382-26.338,11.578-39.952.024,5.488-17.231-5.708-33.435-4.077-45.668,1.018-7.632,4.192-17.085,11.572-19.282l7.927,2.422A16.791,16.791,0,0,1,273.267,429.2l.938,3.649c4.538,4.828,6.051,11.172,4.873,18.875.995,2.186.538,4.942.082,7.7-.432,2.626-.864,5.256-.049,7.4,1.755,4.6,4.582,8.794,7.332,13.024" transform="translate(-227.723 -382.985)" fill="#ff6484"/>
      <ellipse id="Ellipse_279" data-name="Ellipse 279" cx="12.912" cy="12.912" rx="12.912" ry="12.912" transform="translate(26.26 4.392)" fill="#9f616a"/>
      <path id="Tracé_9574" data-name="Tracé 9574" d="M354.071,508.432l-9.045-2.961.66-7.258,9.932-.221a5.353,5.353,0,0,1,5.407,6.187h0a5.353,5.353,0,0,1-6.953,4.253Z" transform="translate(-270.56 -417.608)" fill="#9f616a"/>
      <path id="Tracé_9575" data-name="Tracé 9575" d="M303.614,510.408c-3.739-1.753-12.249-6.173-24.542-15.132-16.93-12.338-12.624-42.467-12.624-42.467l22.593,22.41c-.432,2.626-.864,5.256-.049,7.4C292.686,492.3,301.131,500.173,303.614,510.408Z" transform="translate(-237.605 -398.776)" opacity="0.2"/>
      <path id="Tracé_9576" data-name="Tracé 9576" d="M313.317,477.1c-12.249,2.714-22.271,4.341-30.416-1.435-12.917-15.023-20.259-30.105-17.511-45.293a7.364,7.364,0,0,1,5.345-5.767h0a7.407,7.407,0,0,1,8.838,4.469l9.759,32.708,25.28,4.893Z" transform="translate(-237.129 -386.914)" fill="#2f2e41"/>
      <path id="Tracé_9577" data-name="Tracé 9577" d="M310.113,562.481a6.331,6.331,0,0,1-6.169-4.95l-.752-3.384,12.34-2.741.751,3.383a6.321,6.321,0,0,1-4.8,7.541h0A6.331,6.331,0,0,1,310.113,562.481Zm-5.948-7.714.575,2.587a5.5,5.5,0,1,0,10.747-2.388l-.575-2.587Z" transform="translate(-253.124 -439.871)" fill="#3f3d56"/>
      <path id="Tracé_9578" data-name="Tracé 9578" d="M281.632,372.068s2.073-16.132-14.84-10.842c0,0-12.08-2.216-16.041,12.893l-4.011,15.839,1.955-1.064.911,1.992,3.168.8L254.129,389l.656,3.267,25.945,2.587s-11.62-6.872-11.8-19.189L271.139,378Z" transform="translate(-229.595 -360.161)" fill="#2f2e41"/>
    </g>
  </g>
</svg>
